#include <Arduino.h>
#include <buzzer.h>

void musicdied(){
    int melody[] = {
    NOTE_AS4, NOTE_AS4, NOTE_AS4, NOTE_AS4,
    NOTE_AS4, NOTE_AS4, NOTE_AS4, NOTE_AS4,
    NOTE_AS4, NOTE_AS4, NOTE_AS4, NOTE_AS4,
    NOTE_AS4, NOTE_AS4, NOTE_AS4, NOTE_AS4,
    NOTE_AS4, NOTE_AS4, NOTE_AS4, NOTE_AS4,
    NOTE_D5, NOTE_D5, NOTE_D5, NOTE_D5,
    NOTE_C5, NOTE_C5, NOTE_C5, NOTE_C5, 
    NOTE_F5, NOTE_F5, NOTE_F5, NOTE_F5, 
    NOTE_G5, NOTE_G5, NOTE_G5, NOTE_G5,
    NOTE_G5, NOTE_G5, NOTE_G5, NOTE_G5, 
    NOTE_G5, NOTE_G5, NOTE_G5, NOTE_G5, 
    NOTE_C5, NOTE_AS4, NOTE_A4, NOTE_F4,
    NOTE_G4, 0, NOTE_G4, NOTE_D5,
    NOTE_C5, 0, NOTE_AS4, 0,
    NOTE_A4, 0, NOTE_A4, NOTE_A4,
    NOTE_C5, 0, NOTE_AS4, NOTE_A4, 
    NOTE_G4,0, NOTE_G4, NOTE_AS5,
    NOTE_A5, NOTE_AS5, NOTE_A5, NOTE_AS5,
    NOTE_G4,0, NOTE_G4, NOTE_AS5,
    NOTE_A5, NOTE_AS5, NOTE_A5, NOTE_AS5,
    NOTE_G4, 0, NOTE_G4, NOTE_D5,
    NOTE_C5, 0, NOTE_AS4, 0,
    NOTE_A4, 0, NOTE_A4, NOTE_A4,
    NOTE_C5, 0, NOTE_AS4, NOTE_A4, 
    NOTE_G4,0, NOTE_G4, NOTE_AS5,
    NOTE_A5, NOTE_AS5, NOTE_A5, NOTE_AS5,
    NOTE_G4,0, NOTE_G4, NOTE_AS5,
    NOTE_A5, NOTE_AS5, NOTE_A5, NOTE_AS5
    };

    int noteDurations[] = {
    4,4,4,4,
    4,4,4,4,
    4,4,4,4,
    4,4,4,4,
    4,4,4,4,
    4,4,4,4,
    4,4,4,4,
    4,4,4,4,
    4,4,4,4,
    4,4,4,4,
    4,4,4,4,
    4,4,4,4,
    4,4,4,4,
    4,4,4,4,
    4,4,4,4,
    4,4,4,4,
    4,4,4,4,
    4,4,4,4,
    4,4,4,4,
    4,4,4,4,
    4,4,4,4,
    4,4,4,4,
    4,4,4,4,
    4,4,4,4,
    4,4,4,4,
    4,4,4,4,
    4,4,4,4,
    4,4,4,4,
    };

  for (int thisNote = 0; thisNote < 112; thisNote++) {
    int noteDuration = 750 / noteDurations[thisNote];
    tone(speaker, melody[thisNote], noteDuration);  
    int pauseBetweenNotes = noteDuration * 1.30;
    delay(pauseBetweenNotes); 
    noTone(speaker);
  }

}

void musicpirates(){
    const float songSpeed = 1.0;
    // Music notes of the song, 0 is a rest/pulse
    int notes[] = {
    NOTE_E4, NOTE_G4, NOTE_A4, NOTE_A4, 0,
    NOTE_A4, NOTE_B4, NOTE_C5, NOTE_C5, 0,
    NOTE_C5, NOTE_D5, NOTE_B4, NOTE_B4, 0,
    NOTE_A4, NOTE_G4, NOTE_A4, 0,

    NOTE_E4, NOTE_G4, NOTE_A4, NOTE_A4, 0,
    NOTE_A4, NOTE_B4, NOTE_C5, NOTE_C5, 0,
    NOTE_C5, NOTE_D5, NOTE_B4, NOTE_B4, 0,
    NOTE_A4, NOTE_G4, NOTE_A4, 0,

    NOTE_E4, NOTE_G4, NOTE_A4, NOTE_A4, 0,
    NOTE_A4, NOTE_C5, NOTE_D5, NOTE_D5, 0,
    NOTE_D5, NOTE_E5, NOTE_F5, NOTE_F5, 0,
    NOTE_E5, NOTE_D5, NOTE_E5, NOTE_A4, 0,

    NOTE_A4, NOTE_B4, NOTE_C5, NOTE_C5, 0,
    NOTE_D5, NOTE_E5, NOTE_A4, 0,
    NOTE_A4, NOTE_C5, NOTE_B4, NOTE_B4, 0,
    NOTE_C5, NOTE_A4, NOTE_B4, 0,

    NOTE_A4, NOTE_A4,
    //Repeat of first part
    NOTE_A4, NOTE_B4, NOTE_C5, NOTE_C5, 0,
    NOTE_C5, NOTE_D5, NOTE_B4, NOTE_B4, 0,
    NOTE_A4, NOTE_G4, NOTE_A4, 0,

    NOTE_E4, NOTE_G4, NOTE_A4, NOTE_A4, 0,
    NOTE_A4, NOTE_B4, NOTE_C5, NOTE_C5, 0,
    NOTE_C5, NOTE_D5, NOTE_B4, NOTE_B4, 0,
    NOTE_A4, NOTE_G4, NOTE_A4, 0,

    NOTE_E4, NOTE_G4, NOTE_A4, NOTE_A4, 0,
    NOTE_A4, NOTE_C5, NOTE_D5, NOTE_D5, 0,
    NOTE_D5, NOTE_E5, NOTE_F5, NOTE_F5, 0,
    NOTE_E5, NOTE_D5, NOTE_E5, NOTE_A4, 0,

    NOTE_A4, NOTE_B4, NOTE_C5, NOTE_C5, 0,
    NOTE_D5, NOTE_E5, NOTE_A4, 0,
    NOTE_A4, NOTE_C5, NOTE_B4, NOTE_B4, 0,
    NOTE_C5, NOTE_A4, NOTE_B4, 0,
    //End of Repeat

    NOTE_E5, 0, 0, NOTE_F5, 0, 0,
    NOTE_E5, NOTE_E5, 0, NOTE_G5, 0, NOTE_E5, NOTE_D5, 0, 0,
    NOTE_D5, 0, 0, NOTE_C5, 0, 0,
    NOTE_B4, NOTE_C5, 0, NOTE_B4, 0, NOTE_A4,

    NOTE_E5, 0, 0, NOTE_F5, 0, 0,
    NOTE_E5, NOTE_E5, 0, NOTE_G5, 0, NOTE_E5, NOTE_D5, 0, 0,
    NOTE_D5, 0, 0, NOTE_C5, 0, 0,
    NOTE_B4, NOTE_C5, 0, NOTE_B4, 0, NOTE_A4};

    // Durations (in ms) of each music note of the song
    // Quarter Note is 250 ms when songSpeed = 1.0
    int durations[] = {
    125, 125, 250, 125, 125,
    125, 125, 250, 125, 125,
    125, 125, 250, 125, 125,
    125, 125, 375, 125,

    125, 125, 250, 125, 125,
    125, 125, 250, 125, 125,
    125, 125, 250, 125, 125,
    125, 125, 375, 125,

    125, 125, 250, 125, 125,
    125, 125, 250, 125, 125,
    125, 125, 250, 125, 125,
    125, 125, 125, 250, 125,

    125, 125, 250, 125, 125,
    250, 125, 250, 125,
    125, 125, 250, 125, 125,
    125, 125, 375, 375,

    250, 125,
    //Rpeat of First Part
    125, 125, 250, 125, 125,
    125, 125, 250, 125, 125,
    125, 125, 375, 125,

    125, 125, 250, 125, 125,
    125, 125, 250, 125, 125,
    125, 125, 250, 125, 125,
    125, 125, 375, 125,

    125, 125, 250, 125, 125,
    125, 125, 250, 125, 125,
    125, 125, 250, 125, 125,
    125, 125, 125, 250, 125,

    125, 125, 250, 125, 125,
    250, 125, 250, 125,
    125, 125, 250, 125, 125,
    125, 125, 375, 375,
    //End of Repeat

    250, 125, 375, 250, 125, 375,
    125, 125, 125, 125, 125, 125, 125, 125, 375,
    250, 125, 375, 250, 125, 375,
    125, 125, 125, 125, 125, 500,

    250, 125, 375, 250, 125, 375,
    125, 125, 125, 125, 125, 125, 125, 125, 375,
    250, 125, 375, 250, 125, 375,
    125, 125, 125, 125, 125, 500};

    const int totalNotes = sizeof(notes) / sizeof(int);
    // Loop through each note
    for (int i = 0; i < totalNotes; i++)
    {
        const int currentNote = notes[i];
        float wait = durations[i] / songSpeed;
        // Play tone if currentNote is not 0 frequency, otherwise pause (noTone)
        if (currentNote != 0)
        {
            tone(speaker, notes[i], wait); // tone(pin, frequency, duration)
        }
        else
        {
            noTone(speaker);
        }
        // delay is used to wait for tone to finish playing before moving to next loop
        delay(wait);
  }
}

void starwarsmusic(){
  int tempo = 108;
  int melody[] = {
  
  // Dart Vader theme (Imperial March) - Star wars 
  // Score available at https://musescore.com/user/202909/scores/1141521
  // The tenor saxophone part was used
  
  NOTE_AS4,8, NOTE_AS4,8, NOTE_AS4,8,//1
  NOTE_F5,2, NOTE_C6,2,
  NOTE_AS5,8, NOTE_A5,8, NOTE_G5,8, NOTE_F6,2, NOTE_C6,4,  
  NOTE_AS5,8, NOTE_A5,8, NOTE_G5,8, NOTE_F6,2, NOTE_C6,4,  
  NOTE_AS5,8, NOTE_A5,8, NOTE_AS5,8, NOTE_G5,2, NOTE_C5,8, NOTE_C5,8, NOTE_C5,8,
  NOTE_F5,2, NOTE_C6,2,
  NOTE_AS5,8, NOTE_A5,8, NOTE_G5,8, NOTE_F6,2, NOTE_C6,4,  
  
  NOTE_AS5,8, NOTE_A5,8, NOTE_G5,8, NOTE_F6,2, NOTE_C6,4, //8  
  NOTE_AS5,8, NOTE_A5,8, NOTE_AS5,8, NOTE_G5,2, NOTE_C5,-8, NOTE_C5,16, 
  NOTE_D5,-4, NOTE_D5,8, NOTE_AS5,8, NOTE_A5,8, NOTE_G5,8, NOTE_F5,8,
  NOTE_F5,8, NOTE_G5,8, NOTE_A5,8, NOTE_G5,4, NOTE_D5,8, NOTE_E5,4,NOTE_C5,-8, NOTE_C5,16,
  NOTE_D5,-4, NOTE_D5,8, NOTE_AS5,8, NOTE_A5,8, NOTE_G5,8, NOTE_F5,8,
  
  NOTE_C6,-8, NOTE_G5,16, NOTE_G5,2, REST,8, NOTE_C5,8,//13
  NOTE_D5,-4, NOTE_D5,8, NOTE_AS5,8, NOTE_A5,8, NOTE_G5,8, NOTE_F5,8,
  NOTE_F5,8, NOTE_G5,8, NOTE_A5,8, NOTE_G5,4, NOTE_D5,8, NOTE_E5,4,NOTE_C6,-8, NOTE_C6,16,
  NOTE_F6,4, NOTE_DS6,8, NOTE_CS6,4, NOTE_C6,8, NOTE_AS5,4, NOTE_GS5,8, NOTE_G5,4, NOTE_F5,8,
  NOTE_C6,1
  
  };

  // sizeof gives the number of bytes, each int value is composed of two bytes (16 bits)
  // there are two values per note (pitch and duration), so for each note there are four bytes
  int notes = sizeof(melody) / sizeof(melody[0]) / 2;

  // this calculates the duration of a whole note in ms
  int wholenote = (60000 * 4) / tempo;

  int divider = 0, noteDuration = 0;

  // iterate over the notes of the melody. 
  // Remember, the array is twice the number of notes (notes + durations)
  for (int thisNote = 0; thisNote < notes * 2; thisNote = thisNote + 2) {

    // calculates the duration of each note
    divider = melody[thisNote + 1];
    if (divider > 0) {
      // regular note, just proceed
      noteDuration = (wholenote) / divider;
    } else if (divider < 0) {
      // dotted notes are represented with negative durations!!
      noteDuration = (wholenote) / abs(divider);
      noteDuration *= 1.5; // increases the duration in half for dotted notes
    }

    // we only play the note for 90% of the duration, leaving 10% as a pause
    tone(speaker, melody[thisNote], noteDuration*0.9);

    // Wait for the specief duration before playing the next note.
    delay(noteDuration);
    
    // stop the waveform generation before the next note.
    noTone(speaker);
  }

}

void rickrollmusic(){
  int tempo = 114;

  // notes of the moledy followed by the duration.
  // a 4 means a quarter note, 8 an eighteenth , 16 sixteenth, so on
  // !!negative numbers are used to represent dotted notes,
  // so -4 means a dotted quarter note, that is, a quarter plus an eighteenth!!
  int melody[] = {

  // Never Gonna Give You Up - Rick Astley
  // Score available at https://musescore.com/chlorondria_5/never-gonna-give-you-up_alto-sax
  // Arranged by Chlorondria

  NOTE_D5,-4, NOTE_E5,-4, NOTE_A4,4, //1
  NOTE_E5,-4, NOTE_FS5,-4, NOTE_A5,16, NOTE_G5,16, NOTE_FS5,8,
  NOTE_D5,-4, NOTE_E5,-4, NOTE_A4,2,
  NOTE_A4,16, NOTE_A4,16, NOTE_B4,16, NOTE_D5,8, NOTE_D5,16,
  NOTE_D5,-4, NOTE_E5,-4, NOTE_A4,4, //repeat from 1
  NOTE_E5,-4, NOTE_FS5,-4, NOTE_A5,16, NOTE_G5,16, NOTE_FS5,8,
  NOTE_D5,-4, NOTE_E5,-4, NOTE_A4,2,
  NOTE_A4,16, NOTE_A4,16, NOTE_B4,16, NOTE_D5,8, NOTE_D5,16,
  REST,4, NOTE_B4,8, NOTE_CS5,8, NOTE_D5,8, NOTE_D5,8, NOTE_E5,8, NOTE_CS5,-8,
  NOTE_B4,16, NOTE_A4,2, REST,4, 

  REST,8, NOTE_B4,8, NOTE_B4,8, NOTE_CS5,8, NOTE_D5,8, NOTE_B4,4, NOTE_A4,8, //7
  NOTE_A5,8, REST,8, NOTE_A5,8, NOTE_E5,-4, REST,4, 
  NOTE_B4,8, NOTE_B4,8, NOTE_CS5,8, NOTE_D5,8, NOTE_B4,8, NOTE_D5,8, NOTE_E5,8, REST,8,
  REST,8, NOTE_CS5,8, NOTE_B4,8, NOTE_A4,-4, REST,4,
  REST,8, NOTE_B4,8, NOTE_B4,8, NOTE_CS5,8, NOTE_D5,8, NOTE_B4,8, NOTE_A4,4,
  NOTE_E5,8, NOTE_E5,8, NOTE_E5,8, NOTE_FS5,8, NOTE_E5,4, REST,4,
   
  NOTE_D5,2, NOTE_E5,8, NOTE_FS5,8, NOTE_D5,8, //13
  NOTE_E5,8, NOTE_E5,8, NOTE_E5,8, NOTE_FS5,8, NOTE_E5,4, NOTE_A4,4,
  REST,2, NOTE_B4,8, NOTE_CS5,8, NOTE_D5,8, NOTE_B4,8,
  REST,8, NOTE_E5,8, NOTE_FS5,8, NOTE_E5,-4, NOTE_A4,16, NOTE_B4,16, NOTE_D5,16, NOTE_B4,16,
  NOTE_FS5,-8, NOTE_FS5,-8, NOTE_E5,-4, NOTE_A4,16, NOTE_B4,16, NOTE_D5,16, NOTE_B4,16,

  NOTE_E5,-8, NOTE_E5,-8, NOTE_D5,-8, NOTE_CS5,16, NOTE_B4,-8, NOTE_A4,16, NOTE_B4,16, NOTE_D5,16, NOTE_B4,16, //18
  NOTE_D5,4, NOTE_E5,8, NOTE_CS5,-8, NOTE_B4,16, NOTE_A4,8, NOTE_A4,8, NOTE_A4,8, 
  NOTE_E5,4, NOTE_D5,2, NOTE_A4,16, NOTE_B4,16, NOTE_D5,16, NOTE_B4,16,
  NOTE_FS5,-8, NOTE_FS5,-8, NOTE_E5,-4, NOTE_A4,16, NOTE_B4,16, NOTE_D5,16, NOTE_B4,16,
  NOTE_A5,4, NOTE_CS5,8, NOTE_D5,-8, NOTE_CS5,16, NOTE_B4,8, NOTE_A4,16, NOTE_B4,16, NOTE_D5,16, NOTE_B4,16,

  NOTE_D5,4, NOTE_E5,8, NOTE_CS5,-8, NOTE_B4,16, NOTE_A4,4, NOTE_A4,8,  //23
  NOTE_E5,4, NOTE_D5,2, REST,4,
  REST,8, NOTE_B4,8, NOTE_D5,8, NOTE_B4,8, NOTE_D5,8, NOTE_E5,4, REST,8,
  REST,8, NOTE_CS5,8, NOTE_B4,8, NOTE_A4,-4, REST,4,
  REST,8, NOTE_B4,8, NOTE_B4,8, NOTE_CS5,8, NOTE_D5,8, NOTE_B4,8, NOTE_A4,4,
  REST,8, NOTE_A5,8, NOTE_A5,8, NOTE_E5,8, NOTE_FS5,8, NOTE_E5,8, NOTE_D5,8,
  
  REST,8, NOTE_A4,8, NOTE_B4,8, NOTE_CS5,8, NOTE_D5,8, NOTE_B4,8, //29
  REST,8, NOTE_CS5,8, NOTE_B4,8, NOTE_A4,-4, REST,4,
  NOTE_B4,8, NOTE_B4,8, NOTE_CS5,8, NOTE_D5,8, NOTE_B4,8, NOTE_A4,4, REST,8,
  REST,8, NOTE_E5,8, NOTE_E5,8, NOTE_FS5,4, NOTE_E5,-4, 
  NOTE_D5,2, NOTE_D5,8, NOTE_E5,8, NOTE_FS5,8, NOTE_E5,4, 
  NOTE_E5,8, NOTE_E5,8, NOTE_FS5,8, NOTE_E5,8, NOTE_A4,8, NOTE_A4,4,

  REST,-4, NOTE_A4,8, NOTE_B4,8, NOTE_CS5,8, NOTE_D5,8, NOTE_B4,8, //35
  REST,8, NOTE_E5,8, NOTE_FS5,8, NOTE_E5,-4, NOTE_A4,16, NOTE_B4,16, NOTE_D5,16, NOTE_B4,16,
  NOTE_FS5,-8, NOTE_FS5,-8, NOTE_E5,-4, NOTE_A4,16, NOTE_B4,16, NOTE_D5,16, NOTE_B4,16,
  NOTE_E5,-8, NOTE_E5,-8, NOTE_D5,-8, NOTE_CS5,16, NOTE_B4,8, NOTE_A4,16, NOTE_B4,16, NOTE_D5,16, NOTE_B4,16,
  NOTE_D5,4, NOTE_E5,8, NOTE_CS5,-8, NOTE_B4,16, NOTE_A4,4, NOTE_A4,8, 

   NOTE_E5,4, NOTE_D5,2, NOTE_A4,16, NOTE_B4,16, NOTE_D5,16, NOTE_B4,16, //40
  NOTE_FS5,-8, NOTE_FS5,-8, NOTE_E5,-4, NOTE_A4,16, NOTE_B4,16, NOTE_D5,16, NOTE_B4,16,
  NOTE_A5,4, NOTE_CS5,8, NOTE_D5,-8, NOTE_CS5,16, NOTE_B4,8, NOTE_A4,16, NOTE_B4,16, NOTE_D5,16, NOTE_B4,16,
  NOTE_D5,4, NOTE_E5,8, NOTE_CS5,-8, NOTE_B4,16, NOTE_A4,4, NOTE_A4,8,  
  NOTE_E5,4, NOTE_D5,2, NOTE_A4,16, NOTE_B4,16, NOTE_D5,16, NOTE_B4,16,
   
  NOTE_FS5,-8, NOTE_FS5,-8, NOTE_E5,-4, NOTE_A4,16, NOTE_B4,16, NOTE_D5,16, NOTE_B4,16, //45
  NOTE_A5,4, NOTE_CS5,8, NOTE_D5,-8, NOTE_CS5,16, NOTE_B4,8, NOTE_A4,16, NOTE_B4,16, NOTE_D5,16, NOTE_B4,16,
  NOTE_D5,4, NOTE_E5,8, NOTE_CS5,-8, NOTE_B4,16, NOTE_A4,4, NOTE_A4,8,  
  NOTE_E5,4, NOTE_D5,2, NOTE_A4,16, NOTE_B4,16, NOTE_D5,16, NOTE_B4,16,
  NOTE_FS5,-8, NOTE_FS5,-8, NOTE_E5,-4, NOTE_A4,16, NOTE_B4,16, NOTE_D5,16, NOTE_B4,16, //45
  
  NOTE_A5,4, NOTE_CS5,8, NOTE_D5,-8, NOTE_CS5,16, NOTE_B4,8, NOTE_A4,16, NOTE_B4,16, NOTE_D5,16, NOTE_B4,16,
  NOTE_D5,4, NOTE_E5,8, NOTE_CS5,-8, NOTE_B4,16, NOTE_A4,4, NOTE_A4,8, 

  NOTE_E5,4, NOTE_D5,2, REST,4, REST
  };

  // sizeof gives the number of bytes, each int value is composed of two bytes (16 bits)
  // there are two values per note (pitch and duration), so for each note there are four bytes
  int notes = sizeof(melody) / sizeof(melody[0]) / 2;

  // this calculates the duration of a whole note in ms
  int wholenote = (60000 * 4) / tempo;

  int divider = 0, noteDuration = 0;

  // iterate over the notes of the melody.
  // Remember, the array is twice the number of notes (notes + durations)
  for (int thisNote = 0; thisNote < notes * 2; thisNote = thisNote + 2) {

    // calculates the duration of each note
    divider = melody[thisNote + 1];
    if (divider > 0) {
      // regular note, just proceed
      noteDuration = (wholenote) / divider;
    } else if (divider < 0) {
      // dotted notes are represented with negative durations!!
      noteDuration = (wholenote) / abs(divider);
      noteDuration *= 1.5; // increases the duration in half for dotted notes
    }

    // we only play the note for 90% of the duration, leaving 10% as a pause
    tone(speaker, melody[thisNote], noteDuration * 0.9);

    // Wait for the specief duration before playing the next note.
    delay(noteDuration);

    // stop the waveform generation before the next note.
    noTone(speaker);
  }
}

void supermario(){
  // change this to make the song slower or faster
  int tempo = 200;

  int melody[] = {

  // Super Mario Bros theme
  // Score available at https://musescore.com/user/2123/scores/2145
  // Theme by Koji Kondo
  
  
  NOTE_E5,8, NOTE_E5,8, REST,8, NOTE_E5,8, REST,8, NOTE_C5,8, NOTE_E5,8, //1
  NOTE_G5,4, REST,4, NOTE_G4,8, REST,4, 
  NOTE_C5,-4, NOTE_G4,8, REST,4, NOTE_E4,-4, // 3
  NOTE_A4,4, NOTE_B4,4, NOTE_AS4,8, NOTE_A4,4,
  NOTE_G4,-8, NOTE_E5,-8, NOTE_G5,-8, NOTE_A5,4, NOTE_F5,8, NOTE_G5,8,
  REST,8, NOTE_E5,4,NOTE_C5,8, NOTE_D5,8, NOTE_B4,-4,
  NOTE_C5,-4, NOTE_G4,8, REST,4, NOTE_E4,-4, // repeats from 3
  NOTE_A4,4, NOTE_B4,4, NOTE_AS4,8, NOTE_A4,4,
  NOTE_G4,-8, NOTE_E5,-8, NOTE_G5,-8, NOTE_A5,4, NOTE_F5,8, NOTE_G5,8,
  REST,8, NOTE_E5,4,NOTE_C5,8, NOTE_D5,8, NOTE_B4,-4,

  
  REST,4, NOTE_G5,8, NOTE_FS5,8, NOTE_F5,8, NOTE_DS5,4, NOTE_E5,8,//7
  REST,8, NOTE_GS4,8, NOTE_A4,8, NOTE_C4,8, REST,8, NOTE_A4,8, NOTE_C5,8, NOTE_D5,8,
  REST,4, NOTE_DS5,4, REST,8, NOTE_D5,-4,
  NOTE_C5,2, REST,2,

  REST,4, NOTE_G5,8, NOTE_FS5,8, NOTE_F5,8, NOTE_DS5,4, NOTE_E5,8,//repeats from 7
  REST,8, NOTE_GS4,8, NOTE_A4,8, NOTE_C4,8, REST,8, NOTE_A4,8, NOTE_C5,8, NOTE_D5,8,
  REST,4, NOTE_DS5,4, REST,8, NOTE_D5,-4,
  NOTE_C5,2, REST,2,

  NOTE_C5,8, NOTE_C5,4, NOTE_C5,8, REST,8, NOTE_C5,8, NOTE_D5,4,//11
  NOTE_E5,8, NOTE_C5,4, NOTE_A4,8, NOTE_G4,2,

  NOTE_C5,8, NOTE_C5,4, NOTE_C5,8, REST,8, NOTE_C5,8, NOTE_D5,8, NOTE_E5,8,//13
  REST,1, 
  NOTE_C5,8, NOTE_C5,4, NOTE_C5,8, REST,8, NOTE_C5,8, NOTE_D5,4,
  NOTE_E5,8, NOTE_C5,4, NOTE_A4,8, NOTE_G4,2,
  NOTE_E5,8, NOTE_E5,8, REST,8, NOTE_E5,8, REST,8, NOTE_C5,8, NOTE_E5,4,
  NOTE_G5,4, REST,4, NOTE_G4,4, REST,4, 
  NOTE_C5,-4, NOTE_G4,8, REST,4, NOTE_E4,-4, // 19
  
  NOTE_A4,4, NOTE_B4,4, NOTE_AS4,8, NOTE_A4,4,
  NOTE_G4,-8, NOTE_E5,-8, NOTE_G5,-8, NOTE_A5,4, NOTE_F5,8, NOTE_G5,8,
  REST,8, NOTE_E5,4, NOTE_C5,8, NOTE_D5,8, NOTE_B4,-4,

  NOTE_C5,-4, NOTE_G4,8, REST,4, NOTE_E4,-4, // repeats from 19
  NOTE_A4,4, NOTE_B4,4, NOTE_AS4,8, NOTE_A4,4,
  NOTE_G4,-8, NOTE_E5,-8, NOTE_G5,-8, NOTE_A5,4, NOTE_F5,8, NOTE_G5,8,
  REST,8, NOTE_E5,4, NOTE_C5,8, NOTE_D5,8, NOTE_B4,-4,

  NOTE_E5,8, NOTE_C5,4, NOTE_G4,8, REST,4, NOTE_GS4,4,//23
  NOTE_A4,8, NOTE_F5,4, NOTE_F5,8, NOTE_A4,2,
  NOTE_D5,-8, NOTE_A5,-8, NOTE_A5,-8, NOTE_A5,-8, NOTE_G5,-8, NOTE_F5,-8,
  
  NOTE_E5,8, NOTE_C5,4, NOTE_A4,8, NOTE_G4,2, //26
  NOTE_E5,8, NOTE_C5,4, NOTE_G4,8, REST,4, NOTE_GS4,4,
  NOTE_A4,8, NOTE_F5,4, NOTE_F5,8, NOTE_A4,2,
  NOTE_B4,8, NOTE_F5,4, NOTE_F5,8, NOTE_F5,-8, NOTE_E5,-8, NOTE_D5,-8,
  NOTE_C5,8, NOTE_E4,4, NOTE_E4,8, NOTE_C4,2,

  NOTE_E5,8, NOTE_C5,4, NOTE_G4,8, REST,4, NOTE_GS4,4,//repeats from 23
  NOTE_A4,8, NOTE_F5,4, NOTE_F5,8, NOTE_A4,2,
  NOTE_D5,-8, NOTE_A5,-8, NOTE_A5,-8, NOTE_A5,-8, NOTE_G5,-8, NOTE_F5,-8,
  
  NOTE_E5,8, NOTE_C5,4, NOTE_A4,8, NOTE_G4,2, //26
  NOTE_E5,8, NOTE_C5,4, NOTE_G4,8, REST,4, NOTE_GS4,4,
  NOTE_A4,8, NOTE_F5,4, NOTE_F5,8, NOTE_A4,2,
  NOTE_B4,8, NOTE_F5,4, NOTE_F5,8, NOTE_F5,-8, NOTE_E5,-8, NOTE_D5,-8,
  NOTE_C5,8, NOTE_E4,4, NOTE_E4,8, NOTE_C4,2,
  NOTE_C5,8, NOTE_C5,4, NOTE_C5,8, REST,8, NOTE_C5,8, NOTE_D5,8, NOTE_E5,8,
  REST,1,

  NOTE_C5,8, NOTE_C5,4, NOTE_C5,8, REST,8, NOTE_C5,8, NOTE_D5,4, //33
  NOTE_E5,8, NOTE_C5,4, NOTE_A4,8, NOTE_G4,2,
  NOTE_E5,8, NOTE_E5,8, REST,8, NOTE_E5,8, REST,8, NOTE_C5,8, NOTE_E5,4,
  NOTE_G5,4, REST,4, NOTE_G4,4, REST,4, 
  NOTE_E5,8, NOTE_C5,4, NOTE_G4,8, REST,4, NOTE_GS4,4,
  NOTE_A4,8, NOTE_F5,4, NOTE_F5,8, NOTE_A4,2,
  NOTE_D5,-8, NOTE_A5,-8, NOTE_A5,-8, NOTE_A5,-8, NOTE_G5,-8, NOTE_F5,-8,
  
  NOTE_E5,8, NOTE_C5,4, NOTE_A4,8, NOTE_G4,2, //40
  NOTE_E5,8, NOTE_C5,4, NOTE_G4,8, REST,4, NOTE_GS4,4,
  NOTE_A4,8, NOTE_F5,4, NOTE_F5,8, NOTE_A4,2,
  NOTE_B4,8, NOTE_F5,4, NOTE_F5,8, NOTE_F5,-8, NOTE_E5,-8, NOTE_D5,-8,
  NOTE_C5,8, NOTE_E4,4, NOTE_E4,8, NOTE_C4,2,
  
  //game over sound
  NOTE_C5,-4, NOTE_G4,-4, NOTE_E4,4, //45
  NOTE_A4,-8, NOTE_B4,-8, NOTE_A4,-8, NOTE_GS4,-8, NOTE_AS4,-8, NOTE_GS4,-8,
  NOTE_G4,8, NOTE_D4,8, NOTE_E4,-2,  

  };

  // sizeof gives the number of bytes, each int value is composed of two bytes (16 bits)
  // there are two values per note (pitch and duration), so for each note there are four bytes
  int notes = sizeof(melody) / sizeof(melody[0]) / 2;

  // this calculates the duration of a whole note in ms
  int wholenote = (60000 * 4) / tempo;

  int divider = 0, noteDuration = 0;

  // iterate over the notes of the melody.
  // Remember, the array is twice the number of notes (notes + durations)
  for (int thisNote = 0; thisNote < notes * 2; thisNote = thisNote + 2) {

    // calculates the duration of each note
    divider = melody[thisNote + 1];
    if (divider > 0) {
      // regular note, just proceed
      noteDuration = (wholenote) / divider;
    } else if (divider < 0) {
      // dotted notes are represented with negative durations!!
      noteDuration = (wholenote) / abs(divider);
      noteDuration *= 1.5; // increases the duration in half for dotted notes
    }

    // we only play the note for 90% of the duration, leaving 10% as a pause
    tone(speaker, melody[thisNote], noteDuration * 0.9);

    // Wait for the specief duration before playing the next note.
    delay(noteDuration);

    // stop the waveform generation before the next note.
    noTone(speaker);
  }

}


void pinkmusic(){
  int tempo = 120;

  // notes of the moledy followed by the duration.
  // a 4 means a quarter note, 8 an eighteenth , 16 sixteenth, so on
  // !!negative numbers are used to represent dotted notes,
  // so -4 means a dotted quarter note, that is, a quarter plus an eighteenth!!
  int melody[] = {

  // Pink Panther theme
  // Score available at https://musescore.com/benedictsong/the-pink-panther
  // Theme by Masato Nakamura, arranged by Teddy Mason

  REST,2, REST,4, REST,8, NOTE_DS4,8, 
  NOTE_E4,-4, REST,8, NOTE_FS4,8, NOTE_G4,-4, REST,8, NOTE_DS4,8,
  NOTE_E4,-8, NOTE_FS4,8,  NOTE_G4,-8, NOTE_C5,8, NOTE_B4,-8, NOTE_E4,8, NOTE_G4,-8, NOTE_B4,8,   
  NOTE_AS4,2, NOTE_A4,-16, NOTE_G4,-16, NOTE_E4,-16, NOTE_D4,-16, 
  NOTE_E4,2, REST,4, REST,8, NOTE_DS4,4,

  NOTE_E4,-4, REST,8, NOTE_FS4,8, NOTE_G4,-4, REST,8, NOTE_DS4,8,
  NOTE_E4,-8, NOTE_FS4,8,  NOTE_G4,-8, NOTE_C5,8, NOTE_B4,-8, NOTE_G4,8, NOTE_B4,-8, NOTE_E5,8,
  NOTE_DS5,1,   
  NOTE_D5,2, REST,4, REST,8, NOTE_DS4,8, 
  NOTE_E4,-4, REST,8, NOTE_FS4,8, NOTE_G4,-4, REST,8, NOTE_DS4,8,
  NOTE_E4,-8, NOTE_FS4,8,  NOTE_G4,-8, NOTE_C5,8, NOTE_B4,-8, NOTE_E4,8, NOTE_G4,-8, NOTE_B4,8,   
  
  NOTE_AS4,2, NOTE_A4,-16, NOTE_G4,-16, NOTE_E4,-16, NOTE_D4,-16, 
  NOTE_E4,-4, REST,4,
  REST,4, NOTE_E5,-8, NOTE_D5,8, NOTE_B4,-8, NOTE_A4,8, NOTE_G4,-8, NOTE_E4,-8,
  NOTE_AS4,16, NOTE_A4,-8, NOTE_AS4,16, NOTE_A4,-8, NOTE_AS4,16, NOTE_A4,-8, NOTE_AS4,16, NOTE_A4,-8,   
  NOTE_G4,-16, NOTE_E4,-16, NOTE_D4,-16, NOTE_E4,16, NOTE_E4,16, NOTE_E4,2,
 
  };

  // sizeof gives the number of bytes, each int value is composed of two bytes (16 bits)
  // there are two values per note (pitch and duration), so for each note there are four bytes
  int notes = sizeof(melody) / sizeof(melody[0]) / 2;

  // this calculates the duration of a whole note in ms
  int wholenote = (60000 * 4) / tempo;

  int divider = 0, noteDuration = 0;

  // iterate over the notes of the melody.
  // Remember, the array is twice the number of notes (notes + durations)
  for (int thisNote = 0; thisNote < notes * 2; thisNote = thisNote + 2) {

    // calculates the duration of each note
    divider = melody[thisNote + 1];
    if (divider > 0) {
      // regular note, just proceed
      noteDuration = (wholenote) / divider;
    } else if (divider < 0) {
      // dotted notes are represented with negative durations!!
      noteDuration = (wholenote) / abs(divider);
      noteDuration *= 1.5; // increases the duration in half for dotted notes
    }

    // we only play the note for 90% of the duration, leaving 10% as a pause
    tone(speaker, melody[thisNote], noteDuration * 0.9);

    // Wait for the specief duration before playing the next note.
    delay(noteDuration);

    // stop the waveform generation before the next note.
    noTone(speaker);
  }

}

void catkeymusic(){
  int tempo = 160;
  // notes of the moledy followed by the duration.
  // a 4 means a quarter note, 8 an eighteenth , 16 sixteenth, so on
  // !!negative numbers are used to represent dotted notes,
  // so -4 means a dotted quarter note, that is, a quarter plus an eighteenth!!
  int melody[] = {

  // Keyboard cat
  // Score available at https://musescore.com/user/142788/scores/147371

    REST,1,
    REST,1,
    NOTE_C4,4, NOTE_E4,4, NOTE_G4,4, NOTE_E4,4, 
    NOTE_C4,4, NOTE_E4,8, NOTE_G4,-4, NOTE_E4,4,
    NOTE_A3,4, NOTE_C4,4, NOTE_E4,4, NOTE_C4,4,
    NOTE_A3,4, NOTE_C4,8, NOTE_E4,-4, NOTE_C4,4,
    NOTE_G3,4, NOTE_B3,4, NOTE_D4,4, NOTE_B3,4,
    NOTE_G3,4, NOTE_B3,8, NOTE_D4,-4, NOTE_B3,4,

    NOTE_G3,4, NOTE_G3,8, NOTE_G3,-4, NOTE_G3,8, NOTE_G3,4, 
    NOTE_G3,4, NOTE_G3,4, NOTE_G3,8, NOTE_G3,4,
    NOTE_C4,4, NOTE_E4,4, NOTE_G4,4, NOTE_E4,4, 
    NOTE_C4,4, NOTE_E4,8, NOTE_G4,-4, NOTE_E4,4,
    NOTE_A3,4, NOTE_C4,4, NOTE_E4,4, NOTE_C4,4,
    NOTE_A3,4, NOTE_C4,8, NOTE_E4,-4, NOTE_C4,4,
    NOTE_G3,4, NOTE_B3,4, NOTE_D4,4, NOTE_B3,4,
    NOTE_G3,4, NOTE_B3,8, NOTE_D4,-4, NOTE_B3,4,

    NOTE_G3,-1, 
  
  };

  // sizeof gives the number of bytes, each int value is composed of two bytes (16 bits)
  // there are two values per note (pitch and duration), so for each note there are four bytes
  int notes = sizeof(melody) / sizeof(melody[0]) / 2;

  // this calculates the duration of a whole note in ms
  int wholenote = (60000 * 4) / tempo;

  int divider = 0, noteDuration = 0;

  // iterate over the notes of the melody.
  // Remember, the array is twice the number of notes (notes + durations)
  for (int thisNote = 0; thisNote < notes * 2; thisNote = thisNote + 2) {

    // calculates the duration of each note
    divider = melody[thisNote + 1];
    if (divider > 0) {
      // regular note, just proceed
      noteDuration = (wholenote) / divider;
    } else if (divider < 0) {
      // dotted notes are represented with negative durations!!
      noteDuration = (wholenote) / abs(divider);
      noteDuration *= 1.5; // increases the duration in half for dotted notes
    }

    // we only play the note for 90% of the duration, leaving 10% as a pause
    tone(speaker, melody[thisNote], noteDuration * 0.9);

    // Wait for the specief duration before playing the next note.
    delay(noteDuration);

    // stop the waveform generation before the next note.
    noTone(speaker);
  }

}